<svg width="116" height="101" viewBox="0 0 116 101" fill="none" xmlns="http://www.w3.org/2000/svg">
<path d="M98.447 35.9129C100.209 38.167 101.939 40.5864 103.55 43.1114C106.026 46.9855 108.213 51.1176 109.916 55.1932C110.261 56.0216 110.078 56.0306 110.156 56.2697C110.364 56.9237 110.702 57.2307 110.874 57.7008C111.709 59.9864 112.435 62.1403 113.072 64.4361C113.711 66.8093 112.875 65.8415 112.986 66.6898C113.18 68.344 113.469 66.8135 113.786 67.4011C114.049 68.4761 114.281 69.5662 114.488 70.6631C114.637 71.4548 114.77 72.2424 114.892 73.029C114.741 72.5853 114.587 72.1447 114.432 71.6985C114.592 72.5108 114.713 73.6887 114.269 72.3703C114.282 72.6786 114.282 72.9686 114.294 73.2849C114.557 73.3202 114.841 74.756 115.005 74.8647C115.174 74.9716 114.997 74.1637 115.01 74.1668C115.217 74.1818 115.51 77.5863 115.501 77.8242C115.532 78.4683 115.154 77.9505 115.244 78.4886C115.393 79.4136 115.942 78.7228 115.26 80.0805C115.582 80.5546 115.448 80.6142 115.491 81.2547C115.497 81.3391 115.646 81.2591 115.654 81.2958C115.858 82.2563 115.501 81.5355 115.485 81.5426C115.229 81.6544 115.435 82.6822 115.424 82.9045C115.298 85.6396 115.146 87.6799 115.033 90.53C115.014 91.1473 115.055 93.0477 114.97 93.652C114.891 94.246 114.717 93.9148 114.606 94.2207C115.038 94.7396 115.061 95.2196 114.663 96.303C114.963 96.7459 114.698 96.6687 114.688 97.4684C114.68 98.1319 114.951 99.3404 114.51 100.03C114.648 99.1954 114.474 99.2607 114.48 98.3098C114.501 97.9901 114.771 94.7424 114.394 94.9635C114.208 95.0753 114.289 96.1562 114.25 96.1957C114.037 96.4193 113.852 95.8036 113.974 95.2845C114.003 95.4186 114.03 95.5798 114.058 95.7243C114.389 94.5567 113.402 95.3069 114.274 94.4634C114.381 94.3585 114.482 94.4083 114.599 94.2309C114.557 94.1905 114.435 94.4085 114.428 94.2138C114.421 94.0123 114.648 93.6425 114.477 93.5764C114.23 93.4772 114.282 94.3152 114.262 94.3717C114.264 94.3724 114.265 94.3732 114.267 94.3739C114.099 94.9093 114.155 93.7717 114.133 93.7113C113.995 93.3477 113.861 93.5827 113.758 93.0456C113.699 92.7396 113.773 91.9729 113.757 91.689C113.741 91.4071 113.608 91.8408 113.588 91.6509C113.569 91.4613 113.666 91.2287 113.641 91.0064C113.63 90.9113 113.497 90.9132 113.493 90.8673C113.451 90.3755 113.723 90.7027 113.713 90.2566C113.707 89.9662 113.453 89.0007 113.372 89.6648C113.348 89.3455 113.328 89.0348 113.306 88.7183C113.267 88.9181 113.24 89.1245 113.193 89.3192C113.258 88.7236 113.027 88.4556 113.005 88.0778C112.983 87.7018 113.251 87.358 113.106 86.947C112.8 86.0727 112.987 88.2526 112.929 88.5277C112.91 88.6336 112.693 88.2288 112.686 88.1668C112.656 87.8899 112.803 87.5594 112.791 87.3456C112.748 86.5809 112.529 86.1215 112.456 85.4011C112.214 82.9671 111.801 79.9054 111.416 77.6306C111.274 76.7727 111.412 76.2209 111.341 75.8364C111.172 74.9387 110.956 74.8647 110.799 74.0885C110.648 73.3561 110.523 72.425 110.393 71.5849C110.32 71.1022 110.247 70.6541 110.175 70.2993C110.039 69.6272 109.697 69.0766 109.647 68.9068C108.966 66.5377 108.054 63.6738 107.344 61.7588C107.013 60.8556 107.047 60.353 106.969 60.169C106.633 59.3816 106.546 59.6632 106.305 59.0146C106.174 58.6649 106.31 58.533 106.297 58.484C106.182 58.0538 105.935 58.0622 105.794 57.7493C104.979 55.945 104.309 54.1567 103.436 52.3979C103.373 52.2703 103.47 52.2349 103.423 52.1551C103.218 51.8141 103.16 52.0518 102.958 51.6906C102.537 50.9405 102.139 50.1524 101.709 49.3487C101.666 49.2691 101.761 49.1689 101.659 48.989C101.556 48.8091 101.37 48.735 101.213 48.4508C100.802 47.7078 100.498 46.9112 100.029 46.1413C99.9508 46.014 99.7186 45.9415 99.601 45.752C99.5807 45.7194 99.5603 45.6858 99.5397 45.6512C99.1848 45.0541 98.7679 44.1815 98.4543 43.7067C97.3615 42.0487 96.216 40.617 95.0768 39.1376C94.8094 38.7899 94.6847 38.3931 94.5455 38.2112C94.2311 37.8023 94.3646 38.193 94.0386 37.7855C91.3713 34.4625 88.4979 31.2721 85.3313 28.3345C84.0899 27.1781 82.4444 25.9272 81.2059 24.8569C81.0605 24.7306 80.958 24.6223 80.8775 24.5247C80.6732 24.2777 80.61 24.099 80.3412 23.8814C79.6697 23.3425 79.3952 23.4392 78.664 22.9058C78.0803 22.4813 77.5633 21.7875 76.9445 21.3561C76.3257 20.926 75.905 20.918 75.1818 20.4481C74.5862 20.0611 73.8246 19.4152 73.1662 19.0057C67.8145 15.6727 62.2493 12.9073 56.4196 10.5235C55.6836 10.2229 54.9427 9.92846 54.1966 9.63993C51.8541 8.73065 49.1698 7.9379 46.7121 7.06514C46.4802 6.98313 46.9014 6.85149 46.1265 6.70582C45.7093 6.62921 45.0905 6.67973 44.1371 6.47401C39.2811 5.42318 34.0751 4.40274 28.9404 4.15824C28.0987 4.11733 27.2757 4.09674 26.4482 4.09791C17.4695 4.09154 8.92143 7.11952 0.904066 7.03655C0.503265 7.03339 0.535459 6.42099 0.711633 6.19754C0.95114 6.24876 1.18053 6.32662 1.4321 6.39171C1.50319 5.62179 1.50925 5.81076 2.53422 5.59506C3.16557 5.46551 2.58895 5.30195 2.89807 5.12806C3.29684 4.89579 5.2419 4.04774 4.96407 4.61049C5.06995 4.49969 5.16732 4.39478 5.27105 4.28684C6.72604 3.86722 8.16408 3.44291 9.59858 3.03963C9.84687 2.96981 9.83185 2.82019 10.0892 2.74996C10.7833 2.56089 11.3469 2.56687 12.083 2.43756C12.4796 2.36881 12.5094 2.1887 13.0332 2.12449C13.557 2.06227 13.5757 2.29463 14.2537 1.95004C13.7524 1.71553 15.8495 1.66752 16.5799 1.58426C16.6833 1.57049 17.5397 1.22291 18.0152 1.2148C18.4906 1.20439 19.2179 1.31715 19.9391 1.17693C20.2774 1.11114 20.4732 0.894284 20.8417 0.863353C21.1009 0.841781 21.4208 1.00921 21.7482 1.00331C22.076 0.996396 22.777 0.823761 22.9101 0.818291C23.3827 0.795779 22.8646 0.9377 23.1878 0.935807C24.7484 0.924129 26.5495 0.999244 28.0757 0.961933C28.2635 0.957327 28.0087 0.798165 28.0337 0.793948C29.3199 0.652207 28.6305 0.826345 28.9705 0.974205C28.9943 0.984641 29.0292 0.994483 29.0734 1.0037C29.6429 1.11366 31.7474 1.1665 31.7824 0.930736C31.8335 1.26384 32.3936 1.05471 32.5356 1.05715C33.0866 1.06569 32.9544 1.33997 33.4912 1.30025C33.6884 1.28635 33.3278 1.0597 33.5362 1.08468C34.0504 1.14686 34.4896 1.50096 35.1716 1.60812C35.3366 1.63438 35.4062 1.50347 35.7007 1.54274C35.9966 1.57966 37.2089 1.9068 36.6765 1.54521C37.3953 1.87443 37.5619 1.76766 38.429 1.90179C38.6487 1.93674 38.8971 2.19846 39.3729 2.20513C39.5347 2.20761 39.5644 1.99564 39.8034 2.03322C40.3501 2.11926 40.8245 2.4259 41.5093 2.56173C42.7908 2.81673 44.18 2.94733 45.4977 3.31163C45.8553 3.41124 45.716 3.59857 46.2377 3.72856C46.3143 3.74664 46.9883 3.7208 47.3447 3.83073C47.5602 3.89432 48.6464 4.31743 48.8673 4.3914C49.2345 4.51007 49.3569 4.32887 49.5496 4.42539C50.1062 4.70609 49.548 4.86371 50.3727 4.66703C50.5402 4.95767 50.9589 5.05869 51.0076 5.37229C51.3378 5.14512 51.5601 5.52734 52.0528 5.57265C52.5452 5.61781 53.1132 5.16552 53.0219 5.8224C53.2618 5.81581 54.2202 5.99552 54.3773 6.04068C54.8401 6.17119 54.5384 6.2576 54.8879 6.35396C54.9493 6.37141 54.9273 6.2321 55.3092 6.38067C55.5627 6.47276 57.4074 7.16789 57.5086 7.23136C57.5673 7.26424 57.6183 7.29355 57.6622 7.31954C58.0317 7.53883 57.9039 7.51921 57.6192 7.43034C57.2558 7.31646 56.6335 7.09559 56.4638 7.10893C56.4282 7.0582 56.393 7.00754 56.3539 6.95604C55.818 6.69629 56.039 7.07464 56.2672 7.22822C56.4955 7.38158 57.0073 7.44216 57.1822 7.6077C57.2691 7.69045 57.0851 7.97742 56.7878 7.82107C57.0847 8.04431 56.5907 7.97257 56.6882 8.11327C56.7282 8.17094 56.9607 8.29073 57.2388 8.41114C57.7047 8.61201 58.2982 8.81774 58.3463 8.713C58.0716 8.59545 57.7236 8.46438 57.4448 8.34764C57.1876 7.90468 58.7201 7.32209 59.5864 8.15599C60.2078 8.75967 58.8882 8.47253 60.7431 8.97353C60.4794 8.84564 60.2626 8.72073 60.023 8.60507C60.0901 8.37258 60.3855 8.78416 60.6199 8.80216C60.7336 8.81006 60.1924 8.39344 60.7427 8.5676C61.0598 9.07851 61.5451 8.91192 62.303 9.24901C62.0681 9.21001 61.833 9.17156 61.5981 9.13447C62.7697 9.92835 59.7828 8.68876 62.1959 9.91848C61.8953 9.79408 61.6013 9.6591 61.2955 9.54252C61.3891 9.72169 61.0085 9.95784 61.106 10.0864C61.3608 10.4231 61.9087 10.5339 62.3103 10.7389C62.486 10.8283 62.3332 10.8678 62.348 10.8753C62.5878 10.9984 62.5955 10.8406 62.814 10.9322C63.0898 11.0468 63.8039 11.5459 63.9355 11.5929C64.278 11.7132 63.8638 11.1909 63.9038 11.1868C64.1727 11.1606 64.5453 11.4722 64.6036 11.2972C63.5381 10.8991 60.62 9.39424 63.4434 10.363C62.8261 9.74867 63.2115 9.4731 64.2993 9.95573C65.1954 10.359 64.554 10.23 64.9334 10.615C64.9836 10.6618 66.1185 11.3262 66.2347 11.2459C66.0556 11.4827 66.3152 11.9068 65.9242 12.0455C65.8672 12.0656 65.3992 11.8086 65.4556 12.1093C65.4837 12.26 65.5998 12.617 65.4909 12.7357C65.6369 12.6891 65.7937 12.6332 65.9438 12.5839C66.6651 12.9219 66.7107 13.0796 66.9989 13.4606C67.0214 13.3775 66.8324 12.8763 67.3205 13.259C67.345 13.2795 67.3093 13.4036 67.5516 13.6062C68.0412 14.016 68.1339 14.113 67.5366 14.2095C68.7687 14.6456 68.8064 15.143 70.007 15.7027C70.0226 15.1587 69.5598 15.0188 68.4588 14.5062C68.4684 14.3812 68.5017 14.2709 68.5101 14.144C69.7927 15.1634 69.1077 14.7464 70.0187 15.0048C70.2426 15.067 71.2409 15.7327 71.0625 15.2517C71.0207 15.1373 70.3727 14.7649 70.5066 14.7058C70.5329 14.6935 71.3452 15.1081 71.3974 15.1771C72.0571 16.0266 70.3967 15.3106 72.8119 16.6447C72.8782 16.6818 72.9752 16.5783 73.1111 16.6416C73.3664 16.7611 73.2825 16.8989 73.5123 17.0022C73.7418 17.1053 74.1517 17.1124 74.3557 17.4867C74.7259 18.1678 73.2658 17.4546 72.7621 16.9125C72.2827 17.1328 76.5248 19.9698 76.7818 20.1544C78.0085 20.8155 76.0803 19.5577 76.0542 19.387C76.0459 19.3134 76.4715 18.7432 75.7273 18.7895C75.5081 18.8039 75.9997 19.3616 75.6028 19.1791C75.2059 18.9975 75.4643 18.9218 75.4469 18.892C75.3868 18.7899 74.9641 18.5965 74.9313 18.539C74.4197 17.656 74.87 17.1353 75.3177 18.6494C75.8842 18.7604 75.0794 17.776 75.7124 18.0199C76.4845 18.3189 76.78 18.9241 76.8536 18.9935C77.7406 19.8354 76.8784 18.6382 77.9933 19.625C78.6096 20.1769 76.8134 19.1554 78.3493 20.2363C79.6273 21.1531 79.0443 20.5162 79.3604 20.2843C79.4343 20.2304 80.1933 20.6666 79.2244 19.9875C79.1394 20.0456 79.0123 20.1109 78.8987 20.1385C78.7099 19.9092 78.6078 19.2303 78.4925 19.1258C77.929 18.6176 77.8111 18.8462 77.6213 18.3454C77.6918 18.795 77.3841 18.3356 77.1855 18.2808C76.4492 18.0778 77.1744 18.6905 76.0283 17.5081C76.1165 17.7528 76.1885 17.9839 76.2691 18.2243C76.1074 18.1192 75.9452 18.0146 75.7828 17.9106C75.7355 17.4698 74.8542 16.9326 75.818 17.1707C74.9394 16.4641 74.5138 16.2809 74.1666 16.367C74.1004 16.3837 73.9484 16.3093 73.7795 16.207C73.7713 16.2892 73.6887 16.5064 73.6475 16.5131C73.2826 16.5703 73.1461 15.983 73.3563 15.9244C73.2436 15.8441 73.1558 15.7782 73.1252 15.7543C72.931 15.6028 73.4157 15.7344 73.2742 15.5863C73.2277 15.5369 72.6238 15.1987 72.6432 15.1417C72.7702 14.7755 73.6044 15.6009 71.7593 14.2209C71.5348 14.4892 72.4824 14.9742 72.0572 15.1478C71.6035 15.3342 71.3673 14.5732 71.0064 14.9245C71.0059 14.8312 71.0215 14.763 71.0321 14.6636C70.1321 14.3781 70.3238 14.0254 70.1237 13.806C69.7377 13.3741 67.5201 12.1798 69.3247 13.5837C69.0202 13.4522 68.7182 13.3025 68.4158 13.1716C68.6981 12.5018 68.7403 12.8432 67.3912 11.9966C67.0936 11.8117 67.1393 11.4754 66.6595 11.6533C66.8728 11.3436 65.8456 11.0695 65.7791 10.9875C65.3532 10.4404 67.6097 11.1305 67.5597 11.858C68.0239 11.8152 67.8636 12.1129 68.2667 12.2797C68.8484 12.5228 68.9587 12.5076 69.486 13.0889C70.3043 13.134 67.0431 11.5662 69.1885 12.2116C71.2169 12.6558 80.468 18.326 83.6814 21.0946C84.0142 21.3544 84.2935 21.5761 84.5079 21.7471C88.7426 25.1845 90.8599 27.1561 94.1643 30.7868C94.5042 31.1328 96.9044 33.8944 96.0952 33.5796C95.9816 33.5307 94.8519 32.4422 95.4752 33.6687C95.4437 33.3387 96.0446 33.8625 96.1017 33.9015C97.4124 34.7896 96.9537 34.0301 98.447 35.9129ZM99.5773 43.6995C97.9713 41.147 98.9846 43.1359 98.128 42.9634C98.3429 43.2808 98.555 43.5985 98.7656 43.9186C98.742 43.8136 98.7187 43.7095 98.6946 43.6043C98.6944 43.6039 98.6941 43.6036 98.6939 43.6032C98.9878 43.6335 99.2828 43.6662 99.5773 43.6995ZM112.976 90.1755C112.897 90.058 112.817 89.9422 112.739 89.8159C112.768 89.4232 112.793 89.0322 112.816 88.6401C112.871 88.6865 112.927 88.7315 112.982 88.7782C112.981 89.243 112.977 89.7072 112.976 90.1755ZM72.3565 16.7621C71.9943 16.272 71.8276 16.6388 71.2813 16.0918C71.2067 16.3924 71.1432 16.6924 71.0726 16.9923C71.5785 17.2514 71.7481 17.2241 72.2314 17.6135C72.2215 17.4949 72.2102 17.3748 72.2015 17.2564C72.1034 17.2189 71.9983 17.1805 71.9042 17.1431C71.9099 16.8323 72.7708 17.3258 72.3585 16.7627C72.3578 16.7625 72.3571 16.7623 72.3565 16.7621ZM67.2887 13.9463C67.0416 13.7658 66.0417 13.0747 65.8379 13.1097C65.1583 13.2157 68.274 14.5674 65.8956 13.7269C65.8788 13.7838 65.8422 13.8291 65.8155 13.8802C66.2083 14.1084 66.5993 14.3363 66.9931 14.5681C67.081 14.3544 67.2034 14.1627 67.2887 13.9463ZM93.0035 35.0139C92.7308 34.6318 91.1096 33.1032 91.394 33.8197C91.4782 34.0272 92.4136 34.5202 92.6464 34.8181C92.7972 35.0097 92.4633 34.9369 92.8331 35.2523C92.8885 35.1772 92.9566 35.1017 93.0022 35.0133C93.0026 35.0135 93.003 35.0137 93.0035 35.0139ZM94.488 34.9101C94.1462 34.5594 93.79 34.213 93.4392 33.8676C93.4964 34.2912 94.0666 34.7292 93.8403 34.9746C93.7348 34.8886 93.6304 34.804 93.5246 34.7186C93.5133 34.5939 93.5028 34.4703 93.492 34.3467C93.0817 34.146 93.1818 34.3958 92.7079 33.7739C92.6419 34.4602 92.4963 34.6911 93.7414 35.3811C93.3722 35.3645 92.8486 36.1104 93.8011 36.2705C93.9794 36.3017 93.6731 35.8094 93.6827 35.7925C93.804 35.5756 94.1227 35.7267 94.2303 35.5134C94.2793 35.4169 94.0514 35.1467 94.1225 35.0177C94.1581 34.9555 94.5217 35.0912 94.488 34.9101ZM94.1987 36.4054C93.9958 36.3798 94.0603 36.9833 94.3883 37.2837C94.9004 37.7548 94.47 36.7085 94.1987 36.4054ZM112.977 90.1782C112.977 90.1773 112.976 90.1764 112.976 90.1755C112.977 90.176 112.977 90.1764 112.977 90.1769C112.977 90.1773 112.977 90.1777 112.977 90.1782ZM68.5807 14.8455C68.2111 14.7738 67.7572 14.5034 67.6996 14.6888C67.5659 14.5724 67.4297 14.456 67.2951 14.3403C67.2693 14.3913 67.2448 14.4431 67.2192 14.4936C67.66 14.7738 68.0966 15.057 68.5315 15.3449C68.55 15.1798 68.5729 15.0165 68.5807 14.8455ZM63.5876 12.0846C63.0028 11.7819 63.3883 12.254 63.204 12.3039C63.0207 12.3537 62.5367 12.0122 62.5223 12.2037C62.8677 12.3742 63.2269 12.5541 63.5745 12.7306C63.5674 12.5105 63.5893 12.3006 63.5864 12.0841C63.5868 12.0843 63.5872 12.0844 63.5876 12.0846ZM105.41 54.496C105.27 54.071 105.528 54.1476 104.938 53.458C104.938 53.4586 104.938 53.4592 104.939 53.4597C105.16 54.2811 105.482 55.3099 105.999 56.0869C105.959 55.4873 105.627 55.1653 105.41 54.496ZM73.3584 18.0917C73.6018 18.0628 72.9367 17.4767 72.6948 17.4965C72.3062 17.5274 72.9902 18.1337 73.3584 18.0917ZM112.58 71.1285C112.837 71.364 113.03 71.2631 113.128 70.9691C113.268 70.5558 113.215 69.7585 112.887 69.0107C112.839 68.9003 112.903 69.7988 112.748 69.5655C112.734 69.5419 112.628 69.0669 112.534 68.9669C112.439 68.8668 112.319 69.027 112.207 68.8528C112.013 68.5475 112.019 67.742 111.806 67.533C111.778 67.5058 111.702 68.0242 111.702 68.0552C111.707 68.5633 112.087 68.9567 112.107 69.031C112.212 69.4106 111.99 69.4044 111.966 69.5128C111.919 69.7169 112.088 70.0149 112.087 70.0393C112.044 70.6617 111.778 69.3265 111.656 69.1689C111.332 68.7428 111.262 69.2291 110.849 68.1227C110.81 68.0168 110.472 66.7288 110.68 68.4114C109.335 65.3742 110.849 70.0683 111.044 70.5816C111.151 70.8116 111.262 70.3989 111.386 70.5246C111.6 70.7414 111.747 71.1178 111.925 71.2401C111.983 71.2799 112.044 71.2928 112.112 71.2643C112.179 71.2358 112.23 71.2016 112.269 71.1626C112.569 70.8623 112.119 70.2816 112.097 69.7995C112.241 69.8226 112.374 69.8125 112.526 69.8838C112.334 69.7776 112.506 70.8857 112.565 71.096C112.57 71.1141 112.575 71.1255 112.579 71.1288C112.579 71.1287 112.579 71.1286 112.58 71.1285ZM109.627 63.1904C109.565 62.4237 109.212 62.6023 109.198 61.8845C108.665 61.4348 109.084 62.5447 109.107 62.6809C109.227 63.3049 108.859 63.4118 109.171 63.9833C109.318 63.7036 109.478 63.4605 109.627 63.1904ZM111.288 69.4545C110.975 69.0205 111.195 69.8822 111.165 69.9264C110.874 70.4002 110.297 67.8108 111.288 69.4545ZM91.6717 32.3152C91.5099 32.1183 91.4787 32.3654 91.2861 32.2383C91.0939 32.1111 90.6897 31.4395 90.616 31.5347C90.5456 31.6305 91.2718 32.8634 90.2672 31.8818C90.2512 31.962 90.2041 31.9842 90.1759 32.042C90.4377 32.3239 90.6992 32.6108 90.9572 32.896C90.9562 32.6111 90.9573 32.3151 90.9541 32.0396C91.2137 32.0959 91.1528 32.3184 91.1606 32.3268C91.1607 32.3267 91.1609 32.3265 91.161 32.3264C91.4458 32.6135 92.0337 32.7582 91.6717 32.3152ZM102.884 48.7945C103.335 48.6268 102.579 48.3679 102.406 48.1872C102.234 48.005 102.217 47.6268 102.104 47.8386C102.181 48.2489 102.834 48.8121 102.884 48.7942C102.884 48.7943 102.884 48.7944 102.884 48.7945ZM108.244 59.3808C107.907 58.841 107.831 58.9799 107.674 58.2196C107.579 58.2904 107.482 58.3621 107.388 58.4321C107.612 58.9923 107.907 58.8296 108.038 59.5316C108.059 59.6467 107.722 59.5141 107.989 59.9658C108.067 59.7742 108.159 59.5745 108.244 59.3808ZM106.673 56.6866C106.971 57.3348 108.052 57.499 107.143 56.4443C107.007 56.2884 106.445 56.199 106.673 56.6866ZM95.9856 37.3739C95.2459 36.3951 95.9946 37.5804 96.0745 37.9203C94.2217 35.7557 96.3125 38.1458 96.0977 38.6648C96.4153 38.8564 97.0547 39.1907 96.6841 38.5635C96.5284 38.3023 96.4827 38.476 96.4722 38.4612C96.1618 37.9993 96.3866 37.9106 95.9856 37.3739ZM110.051 64.4148C110.03 64.373 109.899 64.4902 109.824 64.3607C109.75 64.231 109.754 63.8812 109.65 63.8805C109.547 63.8804 109.677 64.5346 109.807 64.7074C109.937 64.8796 110.236 64.7938 110.051 64.4148ZM108.874 59.849C108.547 59.3188 108.353 60.4639 108.4 60.5854C108.834 61.6664 108.691 59.885 108.874 59.849ZM98.5174 39.0473C97.385 38.0265 97.6259 39.2165 97.9141 40.1458C98.0372 40.2074 98.1622 40.2718 98.2838 40.3331C97.6435 40.1088 96.7724 39.5478 98.3021 41.1011C97.6901 40.0868 98.3494 40.831 98.3716 40.8253C99.0294 40.519 97.7274 39.2829 98.5181 39.0483C98.5179 39.048 98.5176 39.0476 98.5174 39.0473ZM110.468 66.3627C110.656 66.9789 111.204 68.5463 111.3 67.7184C111.027 67.2639 110.75 66.8129 110.468 66.3627ZM81.545 21.5246C81.2381 21.0561 80.8488 20.7555 80.3205 20.3662C80.6326 20.9297 80.3065 20.7164 80.1108 20.6461C79.8142 20.5387 80.3978 20.9753 80.3884 20.9908C80.228 21.1766 79.8398 20.922 80.676 21.5642C80.4182 21.4708 80.1626 21.3812 79.9049 21.2899C80.5331 21.788 80.5827 22.0316 80.8588 22.4983C80.7683 21.8201 81.0924 22.4539 81.6992 22.64C82.0038 22.7333 81.7029 21.7635 81.5434 21.5234C81.5439 21.5238 81.5444 21.5242 81.545 21.5246ZM97.6681 37.7521C97.5066 37.6815 97.329 37.6402 97.1608 37.5823C97.0547 37.4597 96.9491 37.3364 96.8424 37.2144C96.8899 37.1521 96.9422 37.0902 96.9854 37.027C96.8713 36.8448 96.8393 36.9755 96.7925 36.9316C96.7928 36.9314 96.7931 36.9311 96.7934 36.9309C96.1214 36.3013 95.9014 36.0044 95.6317 35.3028C95.452 35.4499 95.2723 35.597 95.0926 35.7441C95.2106 35.8533 95.3289 35.9645 95.4459 36.0747C95.5962 36.0621 95.7469 36.0499 95.8974 36.0379C95.9599 36.2253 96.021 36.411 96.082 36.5984C96.2093 36.6863 96.3566 36.7967 96.4703 36.8705C96.4153 37.8497 95.727 36.2636 95.504 36.4227C95.3663 36.5216 96.4113 37.8321 96.65 37.9542C96.6851 37.9715 96.8465 37.3876 97.022 38.0302C97.0494 38.1322 96.2375 38.7888 97.3109 38.807C97.4638 38.8108 97.7857 38.1561 97.6681 37.7521ZM94.0252 32.7576C94.1575 33.9112 92.346 30.8107 92.9468 32.3116C92.4289 32.195 92.4871 32.2532 92.5728 32.7577C92.5799 32.8023 92.3176 32.6359 92.3265 32.6621C92.4849 33.0631 92.8662 33.3752 92.663 33.5585C92.7459 33.6307 92.8232 33.6992 92.906 33.7716C92.8002 33.2598 93.4074 33.6891 93.7556 33.7609C93.914 33.7935 93.7444 33.5506 93.8801 33.5758C93.9304 33.5854 94.1513 33.9388 94.2307 33.8931C94.4085 33.7872 94.4502 33.4103 94.274 32.9776C94.2741 32.9775 94.2743 32.9773 94.2744 32.9772C94.1916 32.9023 94.1086 32.8318 94.0252 32.7576ZM105.157 49.8186C104.906 50.1368 105.116 50.753 104.373 49.7459C104.338 49.8344 104.304 49.9242 104.269 50.0125C104.373 50.193 104.473 50.3682 104.577 50.5527C105.842 50.6104 105.278 52.217 105.626 51.198C105.664 51.087 105.351 50.6865 105.78 51.0201C105.78 51.0194 105.78 51.0187 105.779 51.018C105.402 50.4379 105.245 50.4238 105.157 49.8186ZM102.663 45.948C101.187 44.9999 103.405 48.0384 103.258 47.4025C103.249 47.3417 102.28 46.0353 102.663 45.948ZM109.025 56.9999C108.761 56.3358 108.354 56.4584 108.244 56.5835C108.133 56.7089 108.465 57.1008 108.467 57.169C108.474 57.3896 108.257 57.0063 108.261 57.2947C108.265 57.3894 108.591 58.5854 108.626 58.6316C108.835 58.8859 108.988 58.3317 109.057 58.4002C109.287 58.6249 109.265 59.0624 109.467 59.0751C109.901 59.1041 109.245 58.5587 109.192 58.4459C109.034 58.1008 109.251 58.0491 109.185 57.7685C109.119 57.4883 108.978 57.3452 108.896 57.1078C108.869 57.0287 109.037 57.0338 109.025 56.9999ZM107.276 55.1938C107.871 55.7409 107.442 53.9488 107.278 53.7862C106.811 53.3102 106.997 54.9338 107.276 55.1938ZM94.8028 35.2273C95.4131 35.6023 94.5485 34.266 94.1801 33.9847C94.1638 34.1104 94.5954 35.0984 94.8028 35.2273ZM98.7611 39.3828C98.3346 38.9207 98.4055 39.8944 98.7117 40.3102C99.1659 40.3599 98.9452 40.1656 98.7578 39.8815C98.5702 39.5977 99.0927 39.7449 98.7611 39.3828ZM111.317 64.3961C111.287 64.2606 110.342 62.2912 110.619 63.5096C110.644 63.6007 111.148 65.0299 111.228 65.1266C111.397 65.3176 111.407 64.7328 111.317 64.3961ZM100.902 41.5557C100.471 41.4454 100.29 41.1755 100.176 41.622C100.176 41.6224 100.177 41.6228 100.177 41.6231C99.6171 40.9943 100.175 40.5599 100.058 40.4192C99.65 39.9309 99.5832 40.7121 99.2196 40.4841C99.8757 41.1464 99.4455 41.1258 99.8232 41.7115C99.9082 41.8425 100.427 42.2472 100.583 42.2538C100.74 42.2597 100.876 41.7811 100.902 41.5557ZM112.252 67.3253C112.167 66.5887 111.521 66.0733 111.724 67.0703C111.819 67.5541 112.302 67.7749 112.252 67.3253ZM67.1548 11.9667C67.1956 12.1299 67.2392 12.2942 67.2869 12.4602C67.0343 12.3603 66.7807 12.262 66.5271 12.165C66.7346 12.2282 66.942 12.2928 67.1504 12.3588C66.7228 12.0838 66.6209 11.7741 67.1536 11.9661C67.154 11.9663 67.1544 11.9665 67.1548 11.9667ZM50.4231 5.06324C50.2376 4.88225 49.7021 5.11702 49.7494 5.1611C50.099 5.48736 50.6788 5.31362 50.4231 5.06324ZM95.0268 33.7274C94.5143 33.0462 94.4342 33.8862 94.7354 34.3077C94.6192 33.99 95.3156 34.1148 95.0268 33.7274ZM56.4638 7.10893C56.5168 7.18448 56.5703 7.26028 56.6315 7.33921C56.4065 7.17714 56.3797 7.11536 56.4638 7.10893ZM111.724 63.9039C111.731 63.7656 111.47 62.8402 111.373 62.7361C111.173 62.5205 111.091 63.3333 111.322 63.7187C111.348 63.761 111.719 64.0409 111.724 63.902C111.724 63.9027 111.724 63.9033 111.724 63.9039ZM66.244 11.2322C66.2427 11.238 66.2394 11.2426 66.2347 11.2459C66.238 11.2416 66.2403 11.2364 66.244 11.2322ZM31.777 0.902498C31.7816 0.912284 31.7837 0.921821 31.7824 0.930736C31.781 0.921792 31.7776 0.912239 31.777 0.902498ZM109.896 57.3448C110.311 56.827 109.739 56.2587 109.7 56.91C109.699 56.9458 109.867 57.2722 109.896 57.3448Z" fill="#4CAF4F"/>
</svg>
