<svg width="65" height="57" viewBox="0 0 65 57" fill="none" xmlns="http://www.w3.org/2000/svg">
<path d="M65 38.5C65 48.4411 56.9411 56.5 47 56.5L20 56.5C17.2386 56.5 15 54.2614 15 51.5L15 17.5C15 11.9772 19.4772 7.5 25 7.5L60 7.5C62.7614 7.5 65 9.73858 65 12.5L65 38.5Z" fill="#E8F5E9"/>
<path d="M21.5 22.8892C18.4004 15.8659 11.18 15.3105 7.81165 18.3026C5.0704 20.6855 3.76248 26.6517 6.2529 32.0805C10.5708 41.4151 21.5 46.4138 21.5 46.4138C21.5 46.4138 32.4291 41.5046 36.7471 32.1701C39.2375 26.7951 37.9296 20.8467 35.1883 18.3921C31.82 15.3105 24.5996 15.8659 21.5 22.8892Z" stroke="#103E13" stroke-width="1.5" stroke-linecap="round" stroke-linejoin="round"/>
<path d="M5.98438 31.4354H14.3335L19.7085 36.8104L25.0835 26.0604L28.6669 31.4354H37.016" stroke="#103E13" stroke-width="1.5" stroke-linecap="round" stroke-linejoin="round"/>
</svg>
