<svg width="65" height="56" viewBox="0 0 65 56" fill="none" xmlns="http://www.w3.org/2000/svg">
<path d="M62 38C62 47.9411 53.9411 56 44 56L17 56C14.2386 56 12 53.7614 12 51L12 17C12 11.4772 16.4772 7 22 7L57 7C59.7614 7 62 9.23858 62 12L62 38Z" fill="#E8F5E9"/>
<path d="M45.75 17.25H18.25C17.587 17.25 16.9511 17.5134 16.4822 17.9822C16.0134 18.4511 15.75 19.087 15.75 19.75V42.25C15.75 42.913 16.0134 43.5489 16.4822 44.0178C16.9511 44.4866 17.587 44.75 18.25 44.75H45.75C46.413 44.75 47.0489 44.4866 47.5178 44.0178C47.9866 43.5489 48.25 42.913 48.25 42.25V19.75C48.25 19.087 47.9866 18.4511 47.5178 17.9822C47.0489 17.5134 46.413 17.25 45.75 17.25ZM26.5 33.75C26.7652 33.9489 26.9406 34.245 26.9874 34.5732C27.0343 34.9014 26.9489 35.2348 26.75 35.5C26.5511 35.7652 26.255 35.9406 25.9268 35.9874C25.5986 36.0343 25.2652 35.9489 25 35.75L20 32C19.8448 31.8836 19.7188 31.7326 19.632 31.559C19.5452 31.3854 19.5 31.1941 19.5 31C19.5 30.8059 19.5452 30.6146 19.632 30.441C19.7188 30.2674 19.8448 30.1164 20 30L25 26.25C25.2652 26.0511 25.5986 25.9657 25.9268 26.0126C26.255 26.0594 26.5511 26.2348 26.75 26.5C26.9489 26.7652 27.0343 27.0986 26.9874 27.4268C26.9406 27.755 26.7652 28.0511 26.5 28.25L22.8328 31L26.5 33.75ZM35.7016 22.5937L30.7016 40.0938C30.6589 40.2544 30.5847 40.4049 30.4833 40.5365C30.3818 40.6681 30.2551 40.7782 30.1106 40.8602C29.9661 40.9423 29.8066 40.9947 29.6416 41.0144C29.4766 41.0341 29.3093 41.0207 29.1495 40.975C28.9898 40.9293 28.8407 40.8522 28.7111 40.7482C28.5815 40.6442 28.4739 40.5154 28.3946 40.3693C28.3154 40.2232 28.2661 40.0628 28.2495 39.8975C28.233 39.7321 28.2496 39.5651 28.2984 39.4062L33.2984 21.9063C33.3945 21.5933 33.6095 21.3306 33.8973 21.1745C34.185 21.0184 34.5225 20.9814 34.8372 21.0714C35.1519 21.1615 35.4187 21.3714 35.5803 21.656C35.742 21.9407 35.7855 22.2774 35.7016 22.5937ZM44 32L39 35.75C38.7348 35.9489 38.4014 36.0343 38.0732 35.9874C37.745 35.9406 37.4489 35.7652 37.25 35.5C37.0511 35.2348 36.9657 34.9014 37.0126 34.5732C37.0594 34.245 37.2348 33.9489 37.5 33.75L41.1672 31L37.5 28.25C37.3687 28.1515 37.258 28.0281 37.1744 27.8869C37.0908 27.7456 37.0358 27.5893 37.0126 27.4268C36.9893 27.2643 36.9984 27.0988 37.0391 26.9398C37.0798 26.7808 37.1515 26.6313 37.25 26.5C37.3485 26.3687 37.4719 26.258 37.6131 26.1744C37.7544 26.0908 37.9107 26.0358 38.0732 26.0126C38.2357 25.9893 38.4012 25.9984 38.5602 26.0391C38.7192 26.0798 38.8687 26.1515 39 26.25L44 30C44.1552 30.1164 44.2812 30.2674 44.368 30.441C44.4548 30.6146 44.5 30.8059 44.5 31C44.5 31.1941 44.4548 31.3854 44.368 31.559C44.2812 31.7326 44.1552 31.8836 44 32Z" fill="#103E13"/>
</svg>
