<svg width="65" height="56" viewBox="0 0 65 56" fill="none" xmlns="http://www.w3.org/2000/svg">
<path d="M65 38C65 47.9411 56.9411 56 47 56L20 56C17.2386 56 15 53.7614 15 51L15 17C15 11.4772 19.4772 7 25 7L60 7C62.7614 7 65 9.23858 65 12L65 38Z" fill="#E8F5E9"/>
<path fill-rule="evenodd" clip-rule="evenodd" d="M37.5625 47.6162C37.5625 48.3337 38.1575 48.9287 38.875 48.9287L38.8575 48.9462C40.5725 48.9462 41.43 48.9462 42.235 48.7887C43.8483 48.4719 45.3307 47.6819 46.4932 46.5194C47.6557 45.3569 48.4457 43.8745 48.7625 42.2612C48.92 41.4562 48.92 40.5987 48.92 38.8837C48.92 38.1662 48.325 37.5712 47.6075 37.5712C46.89 37.5712 46.295 38.1662 46.295 38.8837C46.295 40.4237 46.295 41.1937 46.19 41.7362C45.9721 42.8385 45.4315 43.8512 44.637 44.6457C43.8425 45.4402 42.8298 45.9808 41.7275 46.1987C41.185 46.3037 40.415 46.3037 38.875 46.3037C38.1575 46.3037 37.5625 46.8987 37.5625 47.6162ZM23.125 48.9287L23.1075 48.9112C23.825 48.9112 24.42 48.3162 24.42 47.5987C24.42 46.8812 23.825 46.2862 23.1075 46.2862C21.585 46.2862 20.7975 46.2862 20.255 46.1812C19.1527 45.9633 18.14 45.4227 17.3455 44.6282C16.551 43.8337 16.0105 42.821 15.7925 41.7187C15.6875 41.1762 15.6875 40.4062 15.6875 38.8662C15.6875 38.1487 15.0925 37.5537 14.375 37.5537C13.6575 37.5537 13.0625 38.1487 13.0625 38.8662C13.0625 40.5812 13.0625 41.4387 13.22 42.2437C13.539 43.856 14.3297 45.3372 15.4918 46.4994C16.654 47.6615 18.1352 48.4523 19.7475 48.7712C20.5525 48.9287 21.41 48.9287 23.125 48.9287ZM46.3125 23.1162C46.3125 23.8337 46.9075 24.4287 47.625 24.4287L47.6425 24.4462C48.36 24.4462 48.955 23.8512 48.955 23.1337C48.955 21.4187 48.955 20.5612 48.7975 19.7562C48.4785 18.1439 47.6878 16.6627 46.5257 15.5006C45.3635 14.3384 43.8823 13.5477 42.27 13.2287C41.465 13.0712 40.6075 13.0712 38.8925 13.0712C38.175 13.0712 37.58 13.6662 37.58 14.3837C37.58 15.1012 38.175 15.6962 38.8925 15.6962C40.415 15.6962 41.2025 15.6962 41.745 15.8012C44.0025 16.2387 45.7525 18.0062 46.2075 20.2637C46.3125 20.8062 46.3125 21.5762 46.3125 23.1162ZM13.0625 23.1162C13.0625 23.8337 13.6575 24.4287 14.375 24.4287L14.3925 24.4112C15.11 24.4112 15.705 23.8162 15.705 23.0987C15.705 21.5587 15.705 20.7887 15.81 20.2462C16.028 19.1439 16.5685 18.1313 17.363 17.3367C18.1575 16.5422 19.1702 16.0017 20.2725 15.7837C20.815 15.6787 21.585 15.6787 23.125 15.6787C23.8425 15.6787 24.4375 15.0837 24.4375 14.3662C24.4375 13.6487 23.8425 13.0537 23.125 13.0537C21.41 13.0537 20.5525 13.0537 19.7475 13.2112C18.1342 13.528 16.6519 14.318 15.4893 15.4805C14.3268 16.6431 13.5368 18.1254 13.22 19.7387C13.0625 20.5437 13.0625 21.4012 13.0625 23.1162ZM29.25 40.1787H32.75C36.285 40.1787 38.245 40.1787 39.645 38.7612C41.0625 37.3612 41.0625 35.4012 41.0625 31.8662C41.0625 28.3312 41.045 26.3887 39.645 24.9712C38.245 23.5537 36.285 23.5537 32.75 23.5537H32.3125V21.3662C32.3125 20.6487 31.7175 20.0537 31 20.0537C30.2825 20.0537 29.6875 20.6487 29.6875 21.3662V23.5537H29.25C25.715 23.5537 23.755 23.5537 22.355 24.9712C20.9375 26.3712 20.9375 28.3312 20.9375 31.8662C20.9375 35.4012 20.955 37.3437 22.355 38.7612C23.755 40.1787 25.715 40.1787 29.25 40.1787ZM24.21 26.8262C24.8225 26.1962 26.1875 26.1787 29.25 26.1787H32.75C35.795 26.1787 37.1775 26.2137 37.79 26.8262C38.42 27.4387 38.4375 28.8212 38.4375 31.8662C38.4375 34.9112 38.4025 36.2937 37.79 36.9062C37.1775 37.5362 35.8125 37.5537 32.75 37.5537H29.25C26.205 37.5537 24.8225 37.5187 24.21 36.9062C23.58 36.2937 23.5625 34.9112 23.5625 31.8662C23.5625 28.8212 23.5975 27.4387 24.21 26.8262ZM33.1875 30.9912C33.1875 31.7087 33.7825 32.3037 34.5 32.3037C35.2175 32.3037 35.8125 31.7087 35.8125 30.9912V30.1162C35.8125 29.3987 35.2175 28.8037 34.5 28.8037C33.7825 28.8037 33.1875 29.3987 33.1875 30.1162V30.9912ZM26.1875 30.9912C26.1875 31.7087 26.7825 32.3037 27.5 32.3037C28.2175 32.3037 28.8125 31.7087 28.8125 30.9912V30.1162C28.8125 29.3987 28.2175 28.8037 27.5 28.8037C26.7825 28.8037 26.1875 29.3987 26.1875 30.1162V30.9912Z" fill="#103E13"/>
</svg>
