<svg width="65" height="56" viewBox="0 0 65 56" fill="none" xmlns="http://www.w3.org/2000/svg">
<path d="M65 38C65 47.9411 56.9411 56 47 56L20 56C17.2386 56 15 53.7614 15 51L15 17C15 11.4772 19.4772 7 25 7L60 7C62.7614 7 65 9.23858 65 12L65 38Z" fill="#E8F5E9"/>
<path d="M11.768 46.0535L22.905 34.9165M36.9295 29.964L33.5957 39.967C33.5423 40.127 33.4511 40.2718 33.3298 40.3891C33.2086 40.5064 33.0609 40.5927 32.8992 40.6408L12.4627 46.7168C12.2786 46.7715 12.083 46.7746 11.8972 46.7259C11.7115 46.6771 11.5426 46.5783 11.4091 46.4403C11.2755 46.3022 11.1824 46.1302 11.1399 45.9429C11.0973 45.7556 11.1069 45.5602 11.1677 45.378L17.8037 25.4735C17.8513 25.3306 17.929 25.1996 18.0317 25.0894C18.1343 24.9792 18.2595 24.8924 18.3987 24.8348L27.826 20.9533C28.0176 20.8741 28.2284 20.8535 28.4318 20.894C28.6352 20.9345 28.822 21.0343 28.9687 21.1808L36.6757 28.8895C36.8136 29.0274 36.9104 29.201 36.9552 29.3907C37 29.5805 36.9911 29.779 36.9295 29.964Z" stroke="#103E13" stroke-width="1.5" stroke-linecap="round" stroke-linejoin="round"/>
<path d="M38.2052 15.5685L42.3422 19.7055C42.6531 20.0029 42.9015 20.3594 43.0727 20.7542C43.2439 21.1489 43.3345 21.5738 43.3393 22.004C43.3441 22.4342 43.2628 22.8611 43.1004 23.2595C42.9379 23.6579 42.6975 24.0198 42.3933 24.324C42.0891 24.6283 41.7271 24.8687 41.3287 25.0311C40.9303 25.1936 40.5035 25.2748 40.0733 25.27C39.6431 25.2653 39.2181 25.1746 38.8234 25.0034C38.4287 24.8322 38.0722 24.5839 37.7747 24.273L33.636 20.136C33.0522 19.5258 32.7306 18.7114 32.7399 17.867C32.7493 17.0227 33.0888 16.2155 33.6859 15.6184C34.283 15.0213 35.0902 14.6818 35.9345 14.6724C36.7789 14.6631 37.5951 14.9847 38.2052 15.5685Z" fill="#103E13" stroke="#103E13" stroke-width="1.5" stroke-linecap="round" stroke-linejoin="round"/>
<path d="M26.6166 31.203C26.3745 30.9523 26.0848 30.7523 25.7646 30.6147C25.4443 30.4772 25.0999 30.4047 24.7513 30.4017C24.4028 30.3987 24.0571 30.4651 23.7345 30.5971C23.4119 30.7291 23.1188 30.924 22.8724 31.1705C22.6259 31.4169 22.431 31.71 22.299 32.0326C22.167 32.3552 22.1006 32.7009 22.1036 33.0494C22.1066 33.398 22.1791 33.7424 22.3166 34.0627C22.4542 34.3829 22.6542 34.6726 22.9049 34.9147C23.4 35.3929 24.0631 35.6575 24.7513 35.6515C25.4396 35.6455 26.098 35.3695 26.5847 34.8828C27.0714 34.3961 27.3474 33.7377 27.3534 33.0494C27.3594 32.3612 27.0948 31.6981 26.6166 31.203Z" stroke="#103E13" stroke-width="1.5" stroke-linecap="round" stroke-linejoin="round"/>
</svg>
