<svg width="65" height="52" viewBox="0 0 65 52" fill="none" xmlns="http://www.w3.org/2000/svg">
<path d="M37.5146 38.1532L43.633 32.0348C43.8131 31.855 43.9144 31.6109 43.9146 31.3564V22.9532C43.9146 22.3167 43.6618 21.7063 43.2117 21.2562C42.7616 20.8061 42.1512 20.5532 41.5146 20.5532C40.8781 20.5532 40.2677 20.8061 39.8176 21.2562C39.3675 21.7063 39.1146 22.3167 39.1146 22.9532V30.1532" stroke="#103E13" stroke-width="1.5" stroke-linecap="round" stroke-linejoin="round"/>
<path d="M37.5145 31.7532L38.8873 30.3804C38.9598 30.3086 39.0171 30.2231 39.0562 30.1289C39.0952 30.0347 39.115 29.9336 39.1145 29.8316C39.1134 29.6879 39.0728 29.5473 38.9972 29.4251C38.9216 29.303 38.8138 29.2039 38.6857 29.1388L37.9769 28.7852C37.3765 28.485 36.6967 28.3812 36.034 28.4886C35.3713 28.596 34.7591 28.9091 34.2841 29.3836L32.8522 30.8156C32.252 31.4156 31.9147 32.2294 31.9145 33.078V38.1532M18.3146 38.1532L12.1962 32.0348C12.0161 31.855 11.9148 31.6109 11.9146 31.3564V22.9532C11.9146 22.3167 12.1674 21.7063 12.6175 21.2562C13.0676 20.8061 13.678 20.5532 14.3146 20.5532C14.9511 20.5532 15.5615 20.8061 16.0116 21.2562C16.4617 21.7063 16.7146 22.3167 16.7146 22.9532V30.1532" stroke="#103E13" stroke-width="1.5" stroke-linecap="round" stroke-linejoin="round"/>
<path d="M18.3144 31.7532L16.9416 30.3804C16.7982 30.2334 16.7169 30.0369 16.7144 29.8316C16.7144 29.5388 16.8808 29.2716 17.1432 29.1388L17.852 28.7852C18.4525 28.485 19.1322 28.3812 19.7949 28.4886C20.4576 28.596 21.0698 28.9091 21.5448 29.3836L22.9768 30.8156C23.5769 31.4156 23.9142 32.2294 23.9144 33.078V38.1532M30.5816 25.3532H25.2472V21.6204H21.5144V16.286H25.2472V12.5532H30.5816V16.286H34.3144V21.6204H30.5816V25.3532Z" stroke="#103E13" stroke-width="1.5" stroke-linecap="round" stroke-linejoin="round"/>
</svg>
