<svg width="48" height="48" viewBox="0 0 48 48" fill="none" xmlns="http://www.w3.org/2000/svg">
<path d="M21 25.5H30M30 25.5V9C30 8.20435 29.6839 7.44129 29.1213 6.87868C28.5587 6.31607 27.7956 6 27 6H12C11.2044 6 10.4413 6.31607 9.87868 6.87868C9.31607 7.44129 9 8.20435 9 9V24C9 24.3978 9.15804 24.7794 9.43934 25.0607C9.72064 25.342 10.1022 25.5 10.5 25.5H12M30 25.5V12H33C34.5913 12 36.1174 12.6321 37.2426 13.7574C38.3679 14.8826 39 16.4087 39 18V24C39 24.3978 38.842 24.7794 38.5607 25.0607C38.2794 25.342 37.8978 25.5 37.5 25.5M30 25.5H37.5M37.5 25.5C37.5 26.6935 37.0259 27.8381 36.182 28.682C35.3381 29.5259 34.1935 30 33 30C31.8065 30 30.6619 29.5259 29.818 28.682C28.9741 27.8381 28.5 26.6935 28.5 25.5H37.5ZM39 21H36" stroke="#103E13" stroke-width="2" stroke-linecap="round" stroke-linejoin="round"/>
<path d="M16.5 30C18.9853 30 21 27.9853 21 25.5C21 23.0147 18.9853 21 16.5 21C14.0147 21 12 23.0147 12 25.5C12 27.9853 14.0147 30 16.5 30Z" stroke="#103E13" stroke-width="2" stroke-linecap="round" stroke-linejoin="round"/>
</svg>
