<svg width="56" height="48" viewBox="0 0 56 48" fill="none" xmlns="http://www.w3.org/2000/svg">
<g clip-path="url(#clip0_12_3219)">
<path d="M41.6162 37.0625H39.6787V34.1562C39.6772 32.8721 39.1664 31.6409 38.2583 30.7329C37.3503 29.8249 36.1191 29.314 34.835 29.3125H29.0225C27.7383 29.314 26.5072 29.8249 25.5991 30.7329C24.6911 31.6409 24.1802 32.8721 24.1787 34.1562V37.0625H22.2412V34.1562C22.2438 32.3585 22.959 30.6352 24.2302 29.364C25.5014 28.0928 27.2247 27.3776 29.0225 27.375H34.835C36.6327 27.3776 38.356 28.0928 39.6272 29.364C40.8984 30.6352 41.6136 32.3585 41.6162 34.1562V37.0625ZM21.2725 13.8125C21.0155 13.8125 20.7691 13.9146 20.5875 14.0962C20.4058 14.2779 20.3037 14.5243 20.3037 14.7812V23.5H22.2412V14.7812C22.2412 14.5243 22.1391 14.2779 21.9575 14.0962C21.7758 13.9146 21.5294 13.8125 21.2725 13.8125Z" fill="#103E13"/>
<path d="M20.3037 9.9375V11.875H25.1475V18.6562C25.1475 20.4547 25.8619 22.1796 27.1336 23.4513C28.4054 24.723 30.1302 25.4375 31.9287 25.4375C33.7272 25.4375 35.452 24.723 36.7238 23.4513C37.9955 22.1796 38.71 20.4547 38.71 18.6562V11.875H43.5537V9.9375H20.3037ZM27.085 11.875H36.7725V14.7812H27.085V11.875ZM31.9287 23.5C30.6441 23.5 29.412 22.9897 28.5037 22.0813C27.5953 21.1729 27.085 19.9409 27.085 18.6562V16.7188H36.7725V18.6562C36.7725 19.9409 36.2621 21.1729 35.3538 22.0813C34.4454 22.9897 33.2134 23.5 31.9287 23.5Z" fill="#103E13"/>
</g>
<defs>
<clipPath id="clip0_12_3219">
<rect width="55" height="30" fill="white" transform="translate(0.428711 8.84668)"/>
</clipPath>
</defs>
</svg>
