<svg width="49" height="48" viewBox="0 0 49 48" fill="none" xmlns="http://www.w3.org/2000/svg">
<g clip-path="url(#clip0_15_3349)">
<path d="M18.4512 31C18.9899 31 19.5065 30.786 19.8875 30.4051C20.2684 30.0241 20.4824 29.5075 20.4824 28.9688C20.4824 28.43 20.2684 27.9134 19.8875 27.5324C19.5065 27.1515 18.9899 26.9375 18.4512 26.9375C17.9124 26.9375 17.3958 27.1515 17.0148 27.5324C16.6339 27.9134 16.4199 28.43 16.4199 28.9688C16.4199 29.5075 16.6339 30.0241 17.0148 30.4051C17.3958 30.786 17.9124 31 18.4512 31ZM27.3887 28.9688C27.3887 29.5075 27.1747 30.0241 26.7937 30.4051C26.4128 30.786 25.8961 31 25.3574 31C24.8187 31 24.302 30.786 23.9211 30.4051C23.5402 30.0241 23.3262 29.5075 23.3262 28.9688C23.3262 28.43 23.5402 27.9134 23.9211 27.5324C24.302 27.1515 24.8187 26.9375 25.3574 26.9375C25.8961 26.9375 26.4128 27.1515 26.7937 27.5324C27.1747 27.9134 27.3887 28.43 27.3887 28.9688ZM32.2637 31C32.8024 31 33.319 30.786 33.7 30.4051C34.0809 30.0241 34.2949 29.5075 34.2949 28.9688C34.2949 28.43 34.0809 27.9134 33.7 27.5324C33.319 27.1515 32.8024 26.9375 32.2637 26.9375C31.7249 26.9375 31.2083 27.1515 30.8273 27.5324C30.4464 27.9134 30.2324 28.43 30.2324 28.9688C30.2324 29.5075 30.4464 30.0241 30.8273 30.4051C31.2083 30.786 31.7249 31 32.2637 31ZM13.776 10.9036C14.0429 10.5818 14.3773 10.3228 14.7557 10.145C15.134 9.96723 15.5469 9.87504 15.9649 9.875H34.7499C35.5965 9.875 36.3993 10.252 36.9404 10.9036L42.7579 17.9236C43.8564 19.2464 42.9155 21.25 41.1947 21.25H39.9824V35.4688C39.9824 36.5462 39.5544 37.5795 38.7925 38.3414C38.0307 39.1032 36.9974 39.5312 35.9199 39.5312H14.7949C13.7175 39.5312 12.6842 39.1032 11.9223 38.3414C11.1604 37.5795 10.7324 36.5462 10.7324 35.4688V21.25H9.52016C7.80091 21.25 6.86003 19.2464 7.95691 17.922L13.776 10.9036ZM15.9649 12.3125C15.9054 12.3125 15.8465 12.3256 15.7926 12.3509C15.7387 12.3762 15.691 12.413 15.6529 12.4588L10.3847 18.8125H40.3302L35.0635 12.4588C35.0252 12.4128 34.9773 12.3758 34.9231 12.3506C34.8689 12.3253 34.8097 12.3123 34.7499 12.3125H15.9649ZM13.1699 21.25V35.4688C13.1699 35.8997 13.3411 36.3131 13.6459 36.6178C13.9506 36.9225 14.3639 37.0938 14.7949 37.0938H35.9199C36.3509 37.0938 36.7642 36.9225 37.069 36.6178C37.3737 36.3131 37.5449 35.8997 37.5449 35.4688V21.25H13.1699Z" fill="#103E13"/>
</g>
<defs>
<clipPath id="clip0_15_3349">
<rect width="40" height="40" fill="white" transform="translate(8.85742 4)"/>
</clipPath>
</defs>
</svg>
