<svg width="48" height="48" viewBox="0 0 48 48" fill="none" xmlns="http://www.w3.org/2000/svg">
<g clip-path="url(#clip0_12_3213)">
<path d="M17.5937 31C18.1325 31 18.6491 30.786 19.03 30.4051C19.411 30.0241 19.625 29.5075 19.625 28.9688C19.625 28.43 19.411 27.9134 19.03 27.5324C18.6491 27.1515 18.1325 26.9375 17.5937 26.9375C17.055 26.9375 16.5384 27.1515 16.1574 27.5324C15.7765 27.9134 15.5625 28.43 15.5625 28.9688C15.5625 29.5075 15.7765 30.0241 16.1574 30.4051C16.5384 30.786 17.055 31 17.5937 31ZM26.5312 28.9688C26.5312 29.5075 26.3172 30.0241 25.9363 30.4051C25.5554 30.786 25.0387 31 24.5 31C23.9613 31 23.4446 30.786 23.0637 30.4051C22.6827 30.0241 22.4687 29.5075 22.4687 28.9688C22.4687 28.43 22.6827 27.9134 23.0637 27.5324C23.4446 27.1515 23.9613 26.9375 24.5 26.9375C25.0387 26.9375 25.5554 27.1515 25.9363 27.5324C26.3172 27.9134 26.5312 28.43 26.5312 28.9688ZM31.4062 31C31.945 31 32.4616 30.786 32.8425 30.4051C33.2235 30.0241 33.4375 29.5075 33.4375 28.9688C33.4375 28.43 33.2235 27.9134 32.8425 27.5324C32.4616 27.1515 31.945 26.9375 31.4062 26.9375C30.8675 26.9375 30.3509 27.1515 29.9699 27.5324C29.589 27.9134 29.375 28.43 29.375 28.9688C29.375 29.5075 29.589 30.0241 29.9699 30.4051C30.3509 30.786 30.8675 31 31.4062 31ZM12.9186 10.9036C13.1854 10.5818 13.5199 10.3228 13.8982 10.145C14.2766 9.96723 14.6895 9.87504 15.1075 9.875H33.8925C34.7391 9.875 35.5419 10.252 36.083 10.9036L41.9005 17.9236C42.999 19.2464 42.0581 21.25 40.3372 21.25H39.125V35.4688C39.125 36.5462 38.697 37.5795 37.9351 38.3414C37.1732 39.1032 36.1399 39.5312 35.0625 39.5312H13.9375C12.86 39.5312 11.8267 39.1032 11.0649 38.3414C10.303 37.5795 9.87499 36.5462 9.87499 35.4688V21.25H8.66274C6.94349 21.25 6.00261 19.2464 7.09949 17.922L12.9186 10.9036ZM15.1075 12.3125C15.0479 12.3125 14.9891 12.3256 14.9352 12.3509C14.8813 12.3762 14.8336 12.413 14.7955 12.4588L9.52724 18.8125H39.4727L34.2061 12.4588C34.1678 12.4128 34.1199 12.3758 34.0657 12.3506C34.0114 12.3253 33.9523 12.3123 33.8925 12.3125H15.1075ZM12.3125 21.25V35.4688C12.3125 35.8997 12.4837 36.3131 12.7884 36.6178C13.0932 36.9225 13.5065 37.0938 13.9375 37.0938H35.0625C35.4935 37.0938 35.9068 36.9225 36.2115 36.6178C36.5163 36.3131 36.6875 35.8997 36.6875 35.4688V21.25H12.3125Z" fill="#103E13"/>
</g>
<defs>
<clipPath id="clip0_12_3213">
<rect width="40" height="40" fill="white" transform="translate(8 4)"/>
</clipPath>
</defs>
</svg>
