<svg width="49" height="48" viewBox="0 0 49 48" fill="none" xmlns="http://www.w3.org/2000/svg">
<path d="M21.1431 25.5H30.1431M30.1431 25.5V9C30.1431 8.20435 29.827 7.44129 29.2644 6.87868C28.7018 6.31607 27.9387 6 27.1431 6H12.1431C11.3474 6 10.5844 6.31607 10.0217 6.87868C9.45914 7.44129 9.14307 8.20435 9.14307 9V24C9.14307 24.3978 9.3011 24.7794 9.58241 25.0607C9.86371 25.342 10.2452 25.5 10.6431 25.5H12.1431M30.1431 25.5V12H33.1431C34.7344 12 36.2605 12.6321 37.3857 13.7574C38.5109 14.8826 39.1431 16.4087 39.1431 18V24C39.1431 24.3978 38.985 24.7794 38.7037 25.0607C38.4224 25.342 38.0409 25.5 37.6431 25.5M30.1431 25.5H37.6431M37.6431 25.5C37.6431 26.6935 37.169 27.8381 36.325 28.682C35.4811 29.5259 34.3365 30 33.1431 30C31.9496 30 30.805 29.5259 29.9611 28.682C29.1172 27.8381 28.6431 26.6935 28.6431 25.5H37.6431ZM39.1431 21H36.1431" stroke="#103E13" stroke-width="2" stroke-linecap="round" stroke-linejoin="round"/>
<path d="M16.6431 30C19.1283 30 21.1431 27.9853 21.1431 25.5C21.1431 23.0147 19.1283 21 16.6431 21C14.1578 21 12.1431 23.0147 12.1431 25.5C12.1431 27.9853 14.1578 30 16.6431 30Z" stroke="#103E13" stroke-width="2" stroke-linecap="round" stroke-linejoin="round"/>
</svg>
