<svg width="65" height="52" viewBox="0 0 65 52" fill="none" xmlns="http://www.w3.org/2000/svg">
<path d="M37.3716 38.1532L43.49 32.0348C43.6701 31.855 43.7714 31.6109 43.7716 31.3564V22.9532C43.7716 22.3167 43.5187 21.7063 43.0686 21.2562C42.6185 20.8061 42.0081 20.5532 41.3716 20.5532C40.7351 20.5532 40.1246 20.8061 39.6745 21.2562C39.2244 21.7063 38.9716 22.3167 38.9716 22.9532V30.1532" stroke="#103E13" stroke-width="1.5" stroke-linecap="round" stroke-linejoin="round"/>
<path d="M37.3715 31.7532L38.7443 30.3804C38.8167 30.3086 38.8741 30.2231 38.9131 30.1289C38.9521 30.0347 38.9719 29.9336 38.9715 29.8316C38.9704 29.6879 38.9298 29.5473 38.8541 29.4251C38.7785 29.303 38.6708 29.2039 38.5427 29.1388L37.8339 28.7852C37.2334 28.485 36.5537 28.3812 35.8909 28.4886C35.2282 28.596 34.616 28.9091 34.1411 29.3836L32.7091 30.8156C32.1089 31.4156 31.7717 32.2294 31.7715 33.078V38.1532M18.1715 38.1532L12.0531 32.0348C11.873 31.855 11.7717 31.6109 11.7715 31.3564V22.9532C11.7715 22.3167 12.0243 21.7063 12.4744 21.2562C12.9245 20.8061 13.535 20.5532 14.1715 20.5532C14.808 20.5532 15.4185 20.8061 15.8685 21.2562C16.3186 21.7063 16.5715 22.3167 16.5715 22.9532V30.1532" stroke="#103E13" stroke-width="1.5" stroke-linecap="round" stroke-linejoin="round"/>
<path d="M18.1713 31.7532L16.7985 30.3804C16.6551 30.2334 16.5738 30.0369 16.5713 29.8316C16.5713 29.5388 16.7377 29.2716 17.0001 29.1388L17.7089 28.7852C18.3094 28.485 18.9891 28.3812 19.6518 28.4886C20.3146 28.596 20.9267 28.9091 21.4017 29.3836L22.8337 30.8156C23.4338 31.4156 23.7711 32.2294 23.7713 33.078V38.1532M30.4385 25.3532H25.1041V21.6204H21.3713V16.286H25.1041V12.5532H30.4385V16.286H34.1713V21.6204H30.4385V25.3532Z" stroke="#103E13" stroke-width="1.5" stroke-linecap="round" stroke-linejoin="round"/>
</svg>
