<svg width="56" height="48" viewBox="0 0 56 48" fill="none" xmlns="http://www.w3.org/2000/svg">
<g clip-path="url(#clip0_15_3355)">
<path d="M41.4731 37.0625H39.5356V34.1562C39.5341 32.8721 39.0233 31.6409 38.1152 30.7329C37.2072 29.8249 35.9761 29.314 34.6919 29.3125H28.8794C27.5952 29.314 26.3641 29.8249 25.456 30.7329C24.548 31.6409 24.0372 32.8721 24.0356 34.1562V37.0625H22.0981V34.1562C22.1007 32.3585 22.816 30.6352 24.0872 29.364C25.3583 28.0928 27.0817 27.3776 28.8794 27.375H34.6919C36.4896 27.3776 38.213 28.0928 39.4841 29.364C40.7553 30.6352 41.4706 32.3585 41.4731 34.1562V37.0625ZM21.1294 13.8125C20.8725 13.8125 20.6261 13.9146 20.4444 14.0962C20.2627 14.2779 20.1606 14.5243 20.1606 14.7812V23.5H22.0981V14.7812C22.0981 14.5243 21.9961 14.2779 21.8144 14.0962C21.6327 13.9146 21.3863 13.8125 21.1294 13.8125Z" fill="#103E13"/>
<path d="M20.1606 9.9375V11.875H25.0044V18.6562C25.0044 20.4547 25.7188 22.1796 26.9906 23.4513C28.2623 24.723 29.9871 25.4375 31.7856 25.4375C33.5841 25.4375 35.309 24.723 36.5807 23.4513C37.8524 22.1796 38.5669 20.4547 38.5669 18.6562V11.875H43.4106V9.9375H20.1606ZM26.9419 11.875H36.6294V14.7812H26.9419V11.875ZM31.7856 23.5C30.501 23.5 29.269 22.9897 28.3606 22.0813C27.4522 21.1729 26.9419 19.9409 26.9419 18.6562V16.7188H36.6294V18.6562C36.6294 19.9409 36.1191 21.1729 35.2107 22.0813C34.3023 22.9897 33.0703 23.5 31.7856 23.5Z" fill="#103E13"/>
</g>
<defs>
<clipPath id="clip0_15_3355">
<rect width="55" height="30" fill="white" transform="translate(0.285645 8.84668)"/>
</clipPath>
</defs>
</svg>
